<svg width="37" height="40" viewBox="0 0 37 40" fill="none" xmlns="http://www.w3.org/2000/svg">
<g filter="url(#filter0_d_2096_771)">
<mask id="path-1-inside-1_2096_771" fill="white">
<path d="M18.2861 0C26.1759 0.000137096 32.5713 6.39634 32.5713 14.2861C32.5712 20.2695 28.8927 25.3926 23.6738 27.5195L22.6152 29.3535C20.6907 32.6867 15.8796 32.6868 13.9551 29.3535L12.8955 27.5186C7.67793 25.391 4.0001 20.2686 4 14.2861C4 6.39626 10.3963 0 18.2861 0Z"/>
</mask>
<path d="M18.2861 0C26.1759 0.000137096 32.5713 6.39634 32.5713 14.2861C32.5712 20.2695 28.8927 25.3926 23.6738 27.5195L22.6152 29.3535C20.6907 32.6867 15.8796 32.6868 13.9551 29.3535L12.8955 27.5186C7.67793 25.391 4.0001 20.2686 4 14.2861C4 6.39626 10.3963 0 18.2861 0Z" fill="url(#paint0_linear_2096_771)"/>
<path d="M18.2861 0L18.2861 -1H18.2861V0ZM32.5713 14.2861L33.5713 14.2861V14.2861H32.5713ZM23.6738 27.5195L23.2964 26.5935L22.9791 26.7228L22.8078 27.0196L23.6738 27.5195ZM22.6152 29.3535L23.4812 29.8535L23.4813 29.8534L22.6152 29.3535ZM13.9551 29.3535L14.8211 28.8535L14.8211 28.8535L13.9551 29.3535ZM12.8955 27.5186L13.7615 27.0185L13.5902 26.7219L13.2731 26.5926L12.8955 27.5186ZM4 14.2861H3V14.2861L4 14.2861ZM18.2861 0L18.2861 1C25.6235 1.00013 31.5713 6.94856 31.5713 14.2861H32.5713H33.5713C33.5713 5.84413 26.7283 -0.999853 18.2861 -1L18.2861 0ZM32.5713 14.2861L31.5713 14.2861C31.5712 19.849 28.1519 24.6146 23.2964 26.5935L23.6738 27.5195L24.0512 28.4456C29.6335 26.1705 33.5712 20.69 33.5713 14.2861L32.5713 14.2861ZM23.6738 27.5195L22.8078 27.0196L21.7492 28.8536L22.6152 29.3535L23.4813 29.8534L24.5399 28.0194L23.6738 27.5195ZM22.6152 29.3535L21.7492 28.8535C20.2096 31.5201 16.3607 31.5201 14.8211 28.8535L13.9551 29.3535L13.0891 29.8535C15.3985 33.8534 21.1718 33.8534 23.4812 29.8535L22.6152 29.3535ZM13.9551 29.3535L14.8211 28.8535L13.7615 27.0185L12.8955 27.5186L12.0295 28.0186L13.0891 29.8536L13.9551 29.3535ZM12.8955 27.5186L13.2731 26.5926C8.41873 24.6131 5.0001 19.8481 5 14.2861L4 14.2861L3 14.2861C3.00011 20.6891 6.93712 26.1689 12.5179 28.4445L12.8955 27.5186ZM4 14.2861H5C5 6.94854 10.9485 1 18.2861 1V0V-1C9.84398 -1 3 5.84398 3 14.2861H4Z" fill="white" mask="url(#path-1-inside-1_2096_771)"/>
</g>
<circle cx="18.4924" cy="14.4929" r="4.469" fill="white" stroke="white"/>
<defs>
<filter id="filter0_d_2096_771" x="0" y="0" width="36.5703" height="39.8535" filterUnits="userSpaceOnUse" color-interpolation-filters="sRGB">
<feFlood flood-opacity="0" result="BackgroundImageFix"/>
<feColorMatrix in="SourceAlpha" type="matrix" values="0 0 0 0 0 0 0 0 0 0 0 0 0 0 0 0 0 0 127 0" result="hardAlpha"/>
<feOffset dy="4"/>
<feGaussianBlur stdDeviation="2"/>
<feComposite in2="hardAlpha" operator="out"/>
<feColorMatrix type="matrix" values="0 0 0 0 0 0 0 0 0 0 0 0 0 0 0 0 0 0 0.25 0"/>
<feBlend mode="normal" in2="BackgroundImageFix" result="effect1_dropShadow_2096_771"/>
<feBlend mode="normal" in="BackgroundImageFix" in2="effect1_dropShadow_2096_771" result="BackgroundImageFix"/>
<feBlend mode="normal" in="SourceGraphic" in2="BackgroundImageFix" result="shape"/>
</filter>
<linearGradient id="paint0_linear_2096_771" x1="28.0259" y1="28.2337" x2="6.25217" y2="7.12257" gradientUnits="userSpaceOnUse">
<stop stop-color="#00A75C"/>
<stop offset="1" stop-color="#D7FF87"/>
</linearGradient>
</defs>
</svg>
