<svg width="146" height="121" viewBox="0 0 146 121" fill="none" xmlns="http://www.w3.org/2000/svg">
<mask id="path-1-inside-1_1192_3051" fill="white">
<path d="M126 0C137.046 1.09524e-06 146 8.95431 146 20V86.4814C146 97.527 137.046 106.481 126 106.481H82.9639L76.9062 117.78C75.0209 121.297 69.9791 121.297 68.0938 117.78L62.0361 106.481H20C8.95441 106.481 0.000169374 97.527 0 86.4814V20C0 8.95431 8.95431 0 20 0H126Z"/>
</mask>
<path d="M126 0C137.046 1.09524e-06 146 8.95431 146 20V86.4814C146 97.527 137.046 106.481 126 106.481H82.9639L76.9062 117.78C75.0209 121.297 69.9791 121.297 68.0938 117.78L62.0361 106.481H20C8.95441 106.481 0.000169374 97.527 0 86.4814V20C0 8.95431 8.95431 0 20 0H126Z" fill="#FEF2FF"/>
<path d="M126 0V-1V-1V0ZM146 20H147V20H146ZM146 86.4814L147 86.4815V86.4814H146ZM82.9639 106.481V105.481H82.3653L82.0825 106.009L82.9639 106.481ZM76.9062 117.78L77.7876 118.253L77.7876 118.253L76.9062 117.78ZM68.0938 117.78L67.2124 118.253L67.2124 118.253L68.0938 117.78ZM62.0361 106.481L62.9175 106.009L62.6347 105.481H62.0361V106.481ZM20 106.481V107.481V107.481V106.481ZM0 86.4814H-1V86.4815L0 86.4814ZM126 0V1C136.493 1 145 9.50659 145 20H146H147C147 8.40202 137.598 -0.999999 126 -1V0ZM146 20H145V86.4814H146H147V20H146ZM146 86.4814L145 86.4814C145 96.9747 136.493 105.481 126 105.481V106.481V107.481C137.598 107.481 147 98.0793 147 86.4815L146 86.4814ZM126 106.481V105.481H82.9639V106.481V107.481H126V106.481ZM82.9639 106.481L82.0825 106.009L76.0249 117.308L76.9062 117.78L77.7876 118.253L83.8452 106.954L82.9639 106.481ZM76.9062 117.78L76.0249 117.308C74.5166 120.121 70.4834 120.121 68.9751 117.308L68.0938 117.78L67.2124 118.253C69.4749 122.473 75.5251 122.473 77.7876 118.253L76.9062 117.78ZM68.0938 117.78L68.9751 117.308L62.9175 106.009L62.0361 106.481L61.1548 106.954L67.2124 118.253L68.0938 117.78ZM62.0361 106.481V105.481H20V106.481V107.481H62.0361V106.481ZM20 106.481V105.481C9.50671 105.481 1.00016 96.9747 1 86.4814L0 86.4814L-1 86.4815C-0.999822 98.0793 8.40211 107.481 20 107.481V106.481ZM0 86.4814H1V20H0H-1V86.4814H0ZM0 20H1C1 9.50659 9.50659 1 20 1V0V-1C8.40202 -1 -1 8.40202 -1 20H0ZM20 0V1H126V0V-1H20V0Z" fill="white" mask="url(#path-1-inside-1_1192_3051)"/>
</svg>
